PathFileType	4	(X/Y/Z)	Patient4_TMGait_0pt4_01_left_18.trc.trc
DataRate	CameraRate	NumFrames	NumMarkers	Units	OrigDataRate	OrigDataStartFrame	OrigNumFrames
40.345821325648	40.345821325648	4	33	mm	40.345821325648	71	       141
Frame#	Time	Sacral			L.Shoulder			Chest			R.Shoulder			Neck			R.ASIS			L.ASIS			R.Thigh.Superior			R.Thigh.Lateral			R.Thigh.Inferior			R.Patella			L.Thigh.Superior			L.Thigh.Lateral			L.Thigh.Inferior			L.Patella			L.Shank.Superior			L.Shank.Lateral			L.Shank.Inferior			R.Shank.Superior			R.Shank.Lateral			R.Shank.Inferior			R.Heel			R.Midfoot.Superior			R.Midfoot.Lateral			R.Toe			L.Heel			L.Midfoot.Lateral			L.Midfoot.Superior			L.Toe			L.Elbow			L.Wrist			R.Elbow			R.Wrist			
		X1	Y1	Z1	X2	Y2	Z2	X3	Y3	Z3	X4	Y4	Z4	X5	Y5	Z5	X6	Y6	Z6	X7	Y7	Z7	X8	Y8	Z8	X9	Y9	Z9	X10	Y10	Z10	X11	Y11	Z11	X12	Y12	Z12	X13	Y13	Z13	X14	Y14	Z14	X15	Y15	Z15	X16	Y16	Z16	X17	Y17	Z17	X18	Y18	Z18	X19	Y19	Z19	X20	Y20	Z20	X21	Y21	Z21	X22	Y22	Z22	X23	Y23	Z23	X24	Y24	Z24	X25	Y25	Z25	X26	Y26	Z26	X27	Y27	Z27	X28	Y28	Z28	X29	Y29	Z29	X30	Y30	Z30	X31	Y31	Z31	X32	Y32	Z32	X33	Y33	Z33	

71	22.775000000000	607.225043086651	1013.264760602701	455.658064834871	769.783331150174	1445.705177073129	269.009934144050	898.058646180889	1369.589265225030	405.878873187673	849.329697519230	1438.065120561806	594.769405201268	782.844793360549	1498.507745788544	433.847710732997	849.431658318244	939.393992876311	533.237140116848	795.427421409014	976.063244408156	266.399722952074	861.027548317239	733.389657858572	499.599522875053	771.115005700126	630.415917603736	564.331238875817	835.926190485671	573.446315141184	479.278081259301	825.640350278079	490.108033438724	483.810349266883	875.178256332554	794.711294818776	277.702839688059	829.236403165107	668.659649910471	193.804563738695	939.052275499145	610.559903434631	243.810971880510	964.992014963666	536.563907507569	229.788299926664	931.687079767683	461.493952314392	221.094466484626	831.683446303455	354.991124157174	173.256657541391	895.125423981843	236.012388686425	217.400414487094	795.682214575719	402.728913916827	487.711229751558	721.359254589772	298.368302167142	545.401382264483	762.318739341880	205.780573998838	476.683014621624	625.940409729057	41.237943850000	437.500227365601	798.628109131499	95.581298916189	474.708442794102	709.277705401230	34.130949973577	511.677367817617	917.453801225002	42.667215561774	499.110839782070	776.576594284469	74.939424314813	257.398395672015	842.073454929149	73.564019972089	170.577524365310	925.537978546343	138.174609940013	187.963119932458	1048.831116537270	90.892164575109	146.417449174776	697.808986990671	1152.207069354435	68.088286874519	826.548329294380	959.524627123805	-60.794470071285	921.278345440055	1112.080582094997	737.683214256435	1147.270162532263	995.505493059878	693.101332180961	
72	22.799785714286	605.086789094982	1013.008250701268	455.458397658050	767.222350363325	1445.868280880985	269.598021950719	895.903445075602	1368.964465405906	405.670505056738	848.048336877964	1436.847187086347	595.031565426114	780.825590502298	1498.041353866541	434.642596674433	846.897272795639	938.881344198535	532.256308493191	792.396798081852	975.616118486677	265.490605639214	856.048931262911	732.418618852626	498.811941647246	764.814112963039	630.388487658113	563.843438216510	828.517085339771	572.636537133500	478.911225686758	817.325381119671	489.648652944066	483.496306256969	870.882015513960	793.878733315633	277.042591072097	824.544203561483	667.574092318398	193.474627674327	934.317179485948	609.789538924470	243.391291943411	961.279173395909	537.717856010668	229.721058870855	931.493405897954	462.379437431096	221.179714294832	836.942074382718	350.017058703086	173.281018558583	907.078218712224	233.842812289419	217.286042827064	786.911870286642	402.485990059692	487.355472534296	712.172668686733	298.497234318463	545.077974450379	752.790967172987	205.681137143527	476.466732762491	615.966866007900	41.350011833882	437.388359057445	788.564284601989	95.590974382266	474.545870674893	699.257080838701	34.292955781256	511.575225685302	907.350414776649	42.595568830429	499.117487039215	796.732140313931	65.656518252824	257.187406679492	862.861840333310	67.499129846729	170.398117704784	943.350994562474	136.791741125234	187.825764095096	1069.775101258449	95.719139256200	146.429478786699	690.367182479017	1152.560573767274	69.964880045597	816.403952200715	958.720291336867	-59.945786659616	921.015565824612	1109.659026341324	734.891122620727	1146.394060654219	992.444258838016	687.192179371399	
73	22.824571428571	603.401959446823	1012.436409824367	454.505712999505	764.774627713387	1445.828211285850	269.467354901866	893.691540579759	1368.439583153208	405.051479182126	846.175201181088	1435.702186062569	594.743120391038	778.582235322484	1497.472472653119	434.724880600115	844.788996842640	938.383550367346	531.032366902139	790.218118875847	974.891356929780	264.253999156502	851.668806619700	731.416166166908	497.907098133615	758.965770855349	630.350407920259	563.083764653194	821.647569771840	571.785674613971	478.384837025148	809.517510794906	489.084113136194	482.957847587324	867.345351737545	792.192450397467	276.145184008333	819.922827399452	665.563236589203	193.474717940093	929.655485151477	607.868607074669	243.049704772192	957.012371672927	537.301134176844	230.008026521579	929.982906684970	461.887423909455	221.901772612506	839.701215124267	344.977128676722	174.651300104043	915.076908562553	231.357436656070	218.721881086970	778.545712266581	402.161501833950	486.816614224382	703.279746470475	298.637345611856	544.640814432521	743.428707549856	205.512327052501	476.156290943067	606.000323806577	41.389637628727	437.275422083895	778.494894029383	95.592551947444	474.352921772753	689.265694879069	34.415794439571	511.461266074097	897.302459343077	42.491212834874	499.151228058591	811.316810698856	58.330849068828	259.365920921395	877.572093065485	62.242872757906	172.441667022543	955.859487130252	134.845719653241	189.522904416120	1084.284112552469	98.205909916655	148.064445962388	683.894703004812	1152.632263120282	71.121021436361	807.233339046089	957.672292933374	-59.827146541784	918.934720882853	1107.183056392177	731.972311858786	1143.182722484536	987.922706719019	681.705341091808	
74	22.849357142857	602.154153226652	1011.572495102780	452.803516209870	762.475528671262	1445.566956718791	268.593931152105	891.459738334386	1368.013276717726	404.011309857883	843.747627495504	1434.652235796083	593.889501277689	776.162746407653	1496.805834373875	434.051229239367	843.138369432254	937.902812776042	529.572681447407	788.908228170586	973.900822674652	262.700601218319	847.961950905287	730.390987429884	496.875870849294	753.680421432109	630.282882144119	562.042026692936	815.451847917772	570.882700577917	477.680779417132	802.345114657073	488.376000007379	482.177043010034	864.642132551477	789.697804501100	275.015863470181	815.461529065780	662.714765112303	193.819464667614	925.141706533039	604.892700134671	242.878400115474	952.254078262015	535.349197145695	230.726576056319	927.174069681191	460.012005926859	223.267908862490	839.843875175288	339.878561475967	177.321541568346	918.944401174246	228.414593323995	221.652777404783	770.695434672364	401.721917828688	486.090196383712	694.753608768220	298.776108658260	544.089112490940	734.276378292394	205.247839408834	475.756453123465	596.041427827346	41.326791400762	437.169999692451	768.440254363511	95.572699534455	474.140903477187	679.315494274613	34.465614254404	511.341853999716	887.341575748282	42.344423742223	499.222294834890	819.923495746753	52.777961937253	263.828043754172	885.848268175219	57.643614572696	176.585810128007	962.826798899843	132.130153057155	192.980537200130	1092.183076494482	98.011258580983	151.185827514475	678.381434397221	1152.431920811222	71.471832720180	799.218487336333	956.502624313564	-60.517838431663	915.032166025057	1104.708347261660	729.007873037250	1137.549852336400	981.942783715640	676.886395813100	
